<svg id="Ebene_1" data-name="Ebene 1" xmlns="http://www.w3.org/2000/svg" xmlns:xlink="http://www.w3.org/1999/xlink" width="52.82mm" height="52.82mm" viewBox="0 0 149.73 149.73"><defs><style>.cls-1,.cls-5{fill:none;}.cls-2{clip-path:url(#clip-path);}.cls-3{fill:#fff;}.cls-4{fill:#a2c617;}.cls-5{stroke:#a2c617;stroke-width:8px;}.cls-6{fill:#575756;}</style><clipPath id="clip-path" transform="translate(0 0)"><rect class="cls-1" width="149.73" height="149.73"/></clipPath></defs><title>golf-icon</title><g class="cls-2"><path class="cls-3" d="M74.87,145.73A70.87,70.87,0,1,0,4,74.86a70.87,70.87,0,0,0,70.87,70.87" transform="translate(0 0)"/><path class="cls-4" d="M12.44,108.42a70.88,70.88,0,0,0,124.85,0Z" transform="translate(0 0)"/><circle class="cls-5" cx="74.87" cy="74.87" r="70.87"/><path class="cls-6" d="M84.37,35.7A5.24,5.24,0,0,0,84,37.13V33.18A3,3,0,0,0,83.66,32a2.93,2.93,0,0,1-.38-1.21c0-.22.18-.44.55-.66q.11.55.49,2a9.09,9.09,0,0,1,.38,2.08,5.23,5.23,0,0,1-.33,1.53m10.2,90.24q-3.29-1.21-6.14-2.41,2.19-6.69,2.19-10.42,0-3.51-.71-10.53T89.2,92.06a52.59,52.59,0,0,1,.49-6,52.91,52.91,0,0,0,.49-6.14,43,43,0,0,0-1.21-11,25.06,25.06,0,0,0-1.75-3.51A6.93,6.93,0,0,1,86,61.91q0-4.71-5.92-11.4l7.57-1.75a10,10,0,0,0,1.54-5.92l-1.86-14a.61.61,0,0,1,.66-.55c.07-.73.11-1.24.11-1.54q-2.52-2-3.4-2a7.85,7.85,0,0,0-2.3.77L51.59,19.69q-3.4,1.75-3.51,3c.22.59.55.88,1,.88s1-.4,1.76-1.21l1.76-1.55,28.74,5.76A5.07,5.07,0,0,0,80,28.84a86.27,86.27,0,0,1-1.1,13.88H77.69l-2.64-2.41a6.37,6.37,0,0,0-3.4-.88q-2.2,0-3.73,2.52A4.22,4.22,0,0,1,67,39.43a2.17,2.17,0,0,1,.22-1l-1.32-1.54a1.92,1.92,0,0,1,.33-.77A5,5,0,0,1,64.41,35q.55-1.32,1.32-3.4h-.66a29.26,29.26,0,0,0-3.07,2q-1.1-.55-3.29-1.43-1.64,0-3.29,2.3a7.24,7.24,0,0,0-1.65,3.95,7.15,7.15,0,0,0,1.32,3.24q1.32,2.14,2.3,2.14,5.48,0,5.48,3.29a5.45,5.45,0,0,1-1,2.14q-1,1.59-1,5.32,0,1.43,4.66,6.85t6,5.43a29.36,29.36,0,0,1,.22,3.4,6.23,6.23,0,0,1-.6,2.19,6.23,6.23,0,0,0-.6,2.19,22.29,22.29,0,0,0,1.43,6.63,23.67,23.67,0,0,1,1.43,5.43,62.78,62.78,0,0,1-1.54,7.46,51.7,51.7,0,0,1-1.86,6.91q-5.16,7-7.89,10.42-5.7-.22-5.7,2v10.31a5.85,5.85,0,0,0,1.37,2.63q1.37,1.86,2.14,1.86,1.2,0,1.75-2.41l.44-3.51.55,1.21q-.55-2.41-.55-2l.11-.33,2.19,2.52q4.17-5.48,8.22-11.07a92.31,92.31,0,0,0,7.57-11.51q.33,17.87.33,18.42a5.75,5.75,0,0,1-.88,3.07l1.21.22q-1.21.55-1.21,2.52a2.58,2.58,0,0,0,.55,1.86q6-.22,14.47.33Z" transform="translate(0 0)"/></g></svg>